<svg width="50" height="50" viewBox="0 0 50 50" fill="none" xmlns="http://www.w3.org/2000/svg">
<g id="Group">
<path id="Vector" d="M41.1458 50H8.85417C3.95833 50 0 45.9402 0 40.9188V9.0812C0 4.05983 3.95833 0 8.85417 0H41.1458C46.0417 0 50 4.05983 50 9.0812V40.9188C50 45.9402 46.0417 50 41.1458 50Z" fill="#26C9FF"/>
<path id="Vector_2" d="M40.3538 47.8632H9.64551C5.47884 47.8632 2.08301 44.3803 2.08301 40.1068V9.89313C2.08301 5.61962 5.47884 2.13672 9.64551 2.13672H40.333C44.5205 2.13672 47.8955 5.61962 47.8955 9.89313V40.0854C47.9163 44.3803 44.5205 47.8632 40.3538 47.8632Z" fill="#061E26"/>
<path id="Vector_3" fill-rule="evenodd" clip-rule="evenodd" d="M12.292 12.5213C12.292 12.3931 12.3337 12.2863 12.5003 12.2863C13.8128 12.2222 15.6878 12.1794 17.7087 12.1794C23.3337 12.1794 25.792 15.3418 25.792 19.4017C25.792 24.7008 22.0003 26.9658 17.417 26.9658C16.5421 26.9658 15.8337 27.6323 15.8337 28.5071V35.0427C15.8337 35.2136 15.7712 35.2777 15.6045 35.2777H12.5212C12.3545 35.2777 12.292 35.2136 12.292 35.0427V12.5213ZM15.8337 21.9427C15.8337 22.876 16.5461 23.6324 17.4795 23.6324C19.8545 23.6324 22.1253 22.7777 22.1253 19.4658C22.1253 16.8162 20.5003 15.47 17.7712 15.47C16.682 15.47 15.8337 16.3838 15.8337 17.473V21.9427ZM34.0003 21.1111C32.3962 21.1111 31.8545 21.9444 31.8545 22.6282C31.8545 23.376 32.2295 23.9102 34.3753 25.0427C37.5628 26.6239 38.5628 28.141 38.5628 30.3846C38.5628 33.7179 36.0837 35.5128 32.7295 35.5128C30.9587 35.5128 29.3753 35.1282 28.5003 34.6153C28.3753 34.5512 28.3337 34.4444 28.3337 34.2735V31.1965C28.3337 30.9829 28.4378 30.9188 28.5628 31.0256C29.8337 31.8803 31.3962 32.2649 32.7295 32.2649C34.3337 32.2649 35.0003 31.5812 35.0003 30.641C35.0003 29.8931 34.542 29.2307 32.4795 28.1196C29.5837 26.7094 28.3962 25.2564 28.3962 22.8632C28.3962 20.1709 30.4378 17.9487 34.0003 17.9487C35.4178 17.9487 36.5346 18.1309 37.2621 18.3592C37.5651 18.4542 37.917 18.6141 37.917 18.9316V21.7948C37.917 22.0892 37.5011 21.926 37.2358 21.7986C36.3391 21.3681 35.1384 21.1111 34.0003 21.1111Z" fill="#D9F5FF"/>
</g>
</svg>
